<svg width="1280" height="720" xmlns="http://www.w3.org/2000/svg" xmlns:xlink="http://www.w3.org/1999/xlink" overflow="hidden"><defs><clipPath id="clip0"><rect x="0" y="0" width="1280" height="720"/></clipPath><linearGradient x1="106.867" y1="-89.6721" x2="613.133" y2="513.672" gradientUnits="userSpaceOnUse" spreadMethod="reflect" id="fill1"><stop offset="0"/><stop offset="0.08"/><stop offset="1" stop-color="#104862"/></linearGradient><linearGradient x1="-1.79869" y1="3.11543" x2="721.799" y2="420.885" gradientUnits="userSpaceOnUse" spreadMethod="reflect" id="fill2"><stop offset="0" stop-color="#000000" stop-opacity="0"/><stop offset="0.99" stop-color="#156082" stop-opacity="0.458824"/><stop offset="1" stop-color="#156082" stop-opacity="0.458824"/></linearGradient><linearGradient x1="290.222" y1="22.8422" x2="-27.2223" y2="401.158" gradientUnits="userSpaceOnUse" spreadMethod="reflect" id="fill3"><stop offset="0" stop-color="#156082" stop-opacity="0.290196"/><stop offset="0.02" stop-color="#156082" stop-opacity="0.290196"/><stop offset="1" stop-color="#000000" stop-opacity="0.301961"/></linearGradient><linearGradient x1="-126.497" y1="252.116" x2="430.631" y2="390.235" gradientUnits="userSpaceOnUse" spreadMethod="reflect" id="fill4"><stop offset="0" stop-color="#000000" stop-opacity="0"/><stop offset="0.29" stop-color="#000000" stop-opacity="0"/><stop offset="1" stop-color="#156082" stop-opacity="0.431373"/></linearGradient><linearGradient x1="541.799" y1="-102.885" x2="178.201" y2="526.885" gradientUnits="userSpaceOnUse" spreadMethod="reflect" id="fill5"><stop offset="0" stop-color="#000000" stop-opacity="0"/><stop offset="0.99" stop-color="#46B1E1" stop-opacity="0.109804"/><stop offset="1" stop-color="#46B1E1" stop-opacity="0.109804"/></linearGradient><linearGradient x1="865" y1="84" x2="865" y2="361" gradientUnits="userSpaceOnUse" spreadMethod="reflect" id="fill6"><stop offset="0" stop-color="#AC51A0"/><stop offset="0.5" stop-color="#A62598"/><stop offset="1" stop-color="#981B8A"/></linearGradient><linearGradient x1="865" y1="369" x2="865" y2="646" gradientUnits="userSpaceOnUse" spreadMethod="reflect" id="fill7"><stop offset="0" stop-color="#66B352"/><stop offset="0.5" stop-color="#4BAD28"/><stop offset="1" stop-color="#3F9E1D"/></linearGradient></defs><g clip-path="url(#clip0)"><rect x="0" y="0" width="1280" height="720" fill="#FFFFFF"/><rect x="0" y="0" width="1280" height="720" fill="#FFFFFF"/><rect x="0" y="0" width="720" height="424" fill="url(#fill1)" transform="matrix(-6.12323e-17 -1 -1 6.12323e-17 424 720)"/><rect x="0" y="0" width="720" height="424" fill="url(#fill2)" transform="matrix(-6.12323e-17 -1 -1 6.12323e-17 424 721)"/><rect x="0" y="0" width="263" height="424" fill="url(#fill3)" transform="matrix(-6.12323e-17 -1 -1 6.12323e-17 424 720)"/><path d="M142.681 105.849C236.177 107.809 321.544 169.891 348.804 264.478 382.353 380.894 315.177 502.465 198.762 536.014 126.002 556.983 51.2285 538.606-2.81067 493.452L-14.4492 482.733-14.4493 167.558-0.00746918 154.647C22.1369 136.713 48.1633 122.824 77.2673 114.436 99.0952 108.146 121.104 105.396 142.681 105.849Z" fill="url(#fill4)" fill-rule="evenodd"/><rect x="0" y="0" width="720" height="424" fill="url(#fill5)" transform="matrix(-6.12323e-17 -1 -1 6.12323e-17 424 720)"/><text fill="#FFFFFF" font-family="Aptos Display,Aptos Display_MSFontService,sans-serif" font-weight="400" font-size="49" transform="translate(91.5258 410)">Polymorphism</text><path d="M515 130.168C515 104.67 535.67 84 561.168 84L1168.83 84C1194.33 84 1215 104.67 1215 130.168L1215 314.832C1215 340.33 1194.33 361 1168.83 361L561.168 361C535.67 361 515 340.33 515 314.832Z" fill="url(#fill6)" fill-rule="evenodd"/><text fill="#FFFFFF" font-family="Aptos,Aptos_MSFontService,sans-serif" font-weight="400" font-size="35" transform="translate(538.876 195)">Polymorphism means existing in many</text><text fill="#FFFFFF" font-family="Aptos,Aptos_MSFontService,sans-serif" font-weight="400" font-size="35" transform="translate(538.876 233)">forms. Variables, functions, and objects</text><text fill="#FFFFFF" font-family="Aptos,Aptos_MSFontService,sans-serif" font-weight="400" font-size="35" transform="translate(538.876 271)">can exist in multiple forms.</text><path d="M515 415.168C515 389.67 535.67 369 561.168 369L1168.83 369C1194.33 369 1215 389.67 1215 415.168L1215 599.832C1215 625.33 1194.33 646 1168.83 646L561.168 646C535.67 646 515 625.33 515 599.832Z" fill="url(#fill7)" fill-rule="evenodd"/><text fill="#FFFFFF" font-family="Aptos,Aptos_MSFontService,sans-serif" font-weight="400" font-size="35" transform="translate(538.876 422)">An excellent example of Polymorphism in</text><text fill="#FFFFFF" font-family="Aptos,Aptos_MSFontService,sans-serif" font-weight="400" font-size="35" transform="translate(538.876 460)">Object Oriented programming is a cursor</text><text fill="#FFFFFF" font-family="Aptos,Aptos_MSFontService,sans-serif" font-weight="400" font-size="35" transform="translate(538.876 498)">behaviour. A cursor may take different</text><text fill="#FFFFFF" font-family="Aptos,Aptos_MSFontService,sans-serif" font-weight="400" font-size="35" transform="translate(538.876 536)">forms like an arrow, a line, cross, or other</text><text fill="#FFFFFF" font-family="Aptos,Aptos_MSFontService,sans-serif" font-weight="400" font-size="35" transform="translate(538.876 574)">shapes depending on the behaviour of the</text><text fill="#FFFFFF" font-family="Aptos,Aptos_MSFontService,sans-serif" font-weight="400" font-size="35" transform="translate(538.876 612)">user or the program mode.</text></g></svg>