<svg width="1280" height="720" xmlns="http://www.w3.org/2000/svg" xmlns:xlink="http://www.w3.org/1999/xlink" overflow="hidden"><g><rect x="0" y="0" width="1280" height="720" fill="#FFFFFF"/><rect x="0" y="0" width="1280" height="720" fill="#FFFFFF"/><rect x="0" y="0" width="1280" height="720" fill="#E8E8E8" fill-opacity="0.501961"/><path d="M686.498 94.8442C681.255 97.5126 577.803 139.74 434.562 129.253 429.506 128.879 424.732 128.644 419.863 128.457 376.797 126.538 334.527 125.601 316.692 123.308 302.743 121.482 231.403 106.033 210.479 92.9715 189.086 79.5824 168.911 64.789 148.829 49.9487 140.122 43.535 130.853 37.6832 122.989 30.3333 115.125 22.9366 107.635 15.2589 99.1157 8.42395 96.6815 6.45769 94.2474 4.35108 90.6897 4.02332 89.8939 3.92975 89.0513 3.97654 88.2555 4.07011 87.3662 4.16381 86.664 4.63192 86.3362 5.42778 86.0086 6.31734 86.5704 6.83223 87.2257 7.30034 87.6938 7.62809 88.1619 8.14311 88.7704 8.23668 92.6558 8.79849 94.1069 11.6542 95.9325 14.1821 96.7283 15.2589 97.5709 16.1016 96.1198 17.6464 94.8559 19.0041 96.1666 19.7064 97.4772 20.0809 99.3028 20.5958 101.456 20.5022 103.516 22.1875 95.7921 22.328 92.5153 17.8806 89.0046 13.7608 87.6938 12.2628 86.8044 10.4838 85.6809 8.79849 84.2766 6.73866 82.6382 6.64496 80.5786 8.47074 78.7529 10.1092 77.8636 9.96889 77.255 7.72166 76.3188 4.21059 74.1654 1.72944 70.5142 0.465468 69.7184 0.184502 68.7355-0.42409 67.9865 0.465468 67.3311 1.21442 67.8928 2.10398 68.361 2.75935 69.2035 3.92975 69.9526 5.05324 70.2802 6.45769 70.5142 7.39404 70.7484 8.42395 70.0929 9.12611 67.3779 12.1223 69.344 13.5267 71.6845 15.1185 74.9144 17.272 76.1783 20.4553 75.4294 24.2473 75.1485 25.7923 75.3357 26.7285 77.255 26.6817 78.0039 26.6817 78.1912 27.1967 78.4721 27.7584 84.4638 41.0071 93.1239 52.6171 103.282 63.2909 111.521 71.9517 120.602 79.7697 130.011 87.3538 130.292 87.5878 130.573 87.8687 130.713 88.3368 126.266 87.4006 122.427 85.4811 118.729 83.3277 108.899 77.6163 100.614 70.2195 92.2345 62.9632 87.132 58.5158 81.8893 54.2088 76.272 50.2765 75.3357 49.6209 74.6804 48.7783 74.0251 47.9357 73.6506 47.4675 73.1825 47.0462 72.4335 47.2335 71.4972 47.4675 71.4037 48.1697 71.31 48.872 71.0292 51.1191 71.6377 53.1321 72.808 55.0515 75.8507 59.967 80.3445 63.7591 84.9788 67.3638 90.9705 71.9985 96.7751 76.8204 102.065 82.1105 102.439 82.485 103.141 82.7191 102.907 83.7958 99.5838 81.3147 96.4474 78.8803 93.2643 76.5395 90.1279 74.1988 86.9448 71.858 83.8085 69.5641 83.0595 69.0023 82.2637 68.2065 81.1871 68.9088 80.0637 69.6109 80.2041 70.7813 80.485 71.7175 81.3744 74.4797 82.9192 76.914 84.9788 79.0676 92.0003 86.1834 100.099 92.3161 107.635 98.9638 111.708 102.569 115.453 106.407 119.01 110.387 119.806 111.276 119.759 112.119 119.525 113.149 118.589 117.315 120.04 118.72 124.721 117.924 126.172 117.69 127.155 117.924 128.045 118.907 138.811 131.079 151.544 141.331 165.447 150.46 171.111 154.158 176.962 157.67 182.907 160.947 182.907 161.181 182.907 161.462 182.907 161.696 182.86 162.023 182.813 162.211 182.767 162.492 174.387 157.436 166.102 152.239 158.004 146.762 136.049 131.921 115.078 116.004 93.7792 100.462 86.6172 95.2186 80.9531 88.5241 74.4932 82.6254 70.1866 78.693 66.0672 74.5733 61.0585 71.3431 58.9988 70.0322 56.8455 68.8618 54.0836 69.1896 53.007 69.3301 51.7899 69.6109 51.4154 70.8281 51.0877 72.0453 52.0707 72.6071 52.9602 73.122 53.1943 73.2625 53.4283 73.4497 53.6623 73.4497 58.1094 73.7306 59.1392 77.2886 61.2457 79.8634 61.9011 80.6593 61.9478 81.4551 61.2457 82.3913 59.9818 84.0766 60.8712 84.8257 62.5564 85.2938 64.2415 85.7621 66.0672 85.9024 67.8928 86.9792 64.9905 87.8687 62.9777 86.9325 61.1053 85.7621 56.8923 83.1872 54.1773 79.3952 51.6027 75.5096 51.0877 74.7605 50.6664 73.9178 49.9643 73.3093 48.6535 72.0921 47.2492 71.9517 45.6577 73.4497 43.5512 75.416 42.8023 75.2755 42.1001 72.7476 41.1638 69.3301 39.0574 66.9425 35.4529 65.6785 34.704 65.3976 33.9082 65.023 33.1124 65.6316 32.2699 66.3339 32.8315 67.0361 33.1592 67.6916 33.6273 68.7215 34.189 69.7514 34.6103 70.8281 35.3593 72.5603 35.4998 74.3861 34.0955 76.0714 33.0655 77.2886 33.1592 78.0844 34.5168 78.9271 38.8701 81.5487 41.632 84.9662 40.134 90.303 39.8999 91.0521 40.1809 91.8012 41.0702 91.7543 43.0363 91.6139 43.3639 92.8311 43.9257 94.0951 49.4025 106.22 57.3136 116.8 66.4417 126.725 75.4762 136.556 85.6341 145.357 96.4474 153.784 93.4047 153.503 89.4726 151.771 85.6809 149.758 75.6635 144.374 67.4247 137.071 59.0456 129.908 53.1943 124.899 47.4834 119.75 40.9298 115.443 40.1809 114.974 39.6659 114.366 39.2446 113.617 38.8701 112.961 38.3083 112.353 37.3254 112.634 36.3424 112.961 36.2487 113.804 36.2487 114.553 36.3892 117.362 37.185 119.89 38.9169 122.137 42.2873 126.631 46.7811 130.143 51.2749 133.654 57.5008 138.476 63.2586 143.719 68.4545 149.571 64.7097 146.715 60.9648 143.812 57.1731 140.957 54.3176 138.803 51.3686 136.743 48.4664 134.637 47.7642 134.122 47.0152 133.56 46.0322 134.262 45.1428 134.871 45.2832 135.76 45.4705 136.603 46.1726 139.927 48.1387 142.595 50.5728 144.983 53.5219 147.838 56.6115 150.554 59.7945 153.269 56.3774 152.52 52.9602 151.771 49.543 151.162 51.0877 156.593 54.6921 157.67 57.9221 158.512 62.2756 159.589 66.4417 160.947 70.5611 162.492 72.293 164.036 74.0251 165.535 75.7102 167.126 77.4423 168.765 79.0807 170.403 80.719 172.135 81.8893 173.399 83.2935 174.476 81.9361 176.63 81.3276 177.613 85.3064 182.95 86.5704 183.277 86.7576 183.324 86.9448 183.371 87.0852 183.371 89.8003 183.184 90.4089 184.775 90.4557 186.788 90.5024 188.755 90.0344 191.189 93.7324 190.206 94.1537 190.112 94.2474 190.393 94.4345 190.721 98.4603 199.101 105.248 205.561 111.942 212.022 112.316 212.349 112.691 212.677 113.065 213.005 106.044 211.366 82.8722 209.259 76.0847 209.962 70.0461 210.57 35.9211 200.365 28.8526 194.326 27.8696 199.054 29.976 200.926 31.6613 203.08 34.0486 206.123 34.4231 208.276 29.9293 210.711 17.0562 217.639 17.1967 217.873 29.2739 227.283 29.8357 227.705 29.5548 229.062 29.6952 229.999 26.5588 231.403 22.8608 227.751 19.116 231.684 35.2656 248.958 59.8414 265.391 82.1234 278.358 64.1012 282.618 53.2878 267.638 40.0404 269.557 33.44 274.238 53.1006 281.823 34.3295 284.023 42.4746 288.143 48.5132 292.169 54.1304 296.897 64.1012 305.37 66.0672 310.988 61.4798 322.364 58.4371 329.855 54.0368 336.736 57.9221 345.678 60.5903 351.811 59.5605 355.837 49.4493 353.075 38.5425 350.125 34.4231 355.649 37.185 366.37 38.9638 373.252 37.0913 375.405 29.6015 374.61 21.316 373.72 13.4519 369.226 3.20027 371.379 11.3921 383.926 28.8994 380.368 38.4488 392.305 27.0738 392.352 18.367 392.305 9.941 389.684 6.43023 388.607 2.59173 387.53 0.625643 391.135-1.71483 395.489 3.0598 397.127 5.91525 397.923 13.9667 400.124 20.1458 405.32 26.8398 409.393 41.4915 418.335 57.5945 425.778 69.9993 440.478 54.4113 436.733 42.7554 427.978 28.2441 426.199 40.8362 439.635 56.986 448.39 72.293 458.174 76.6465 460.936 81.0935 462.809 82.0765 468.801 83.9958 480.411 89.6599 490.055 101.877 495.158 101.971 495.204 101.316 496.937 100.894 498.154 93.4516 498.528 87.6002 491.646 78.0508 493.894 87.132 503.21 94.7622 511.59 107.682 516.037 118.027 519.595 130.807 521.608 138.296 533.078 129.589 535.325 123.083 532.516 116.576 530.503 106.559 527.413 96.7283 523.902 86.7107 520.765 82.9192 519.595 78.7529 518.706 76.3188 524.417 89.0046 525.634 96.6346 533.312 104.593 540.521 109.086 544.594 112.738 550.025 120.789 547.965 125.049 546.888 127.764 549.931 127.296 553.676 125.704 566.878 135.581 571.513 145.833 574.041 165.213 578.863 181.362 590.145 200.227 596.324 218.577 602.317 356.294 630.125 391.168 632.887 604.579 649.787 758.072 516.458 758.774 514.633 762.004 506.066 770.008 502.367 777.264 497.779 783.583 493.753 790.324 489.493 792.946 482.611 796.41 473.482 786.579 480.973 784.754 477.462 788.499 472.733 794.303 468.38 795.848 462.996 801.372 443.521 813.261 429.336 831.05 418.335 836.152 415.151 839.522 409.44 846.497 408.503 861.992 406.49 857.076 390.761 865.268 383.785 866.813 382.474 868.217 349.376 867.937 347.597 867.515 345.023 865.69 373.065 864.098 370.818 862.506 368.524 860.072 366.511 861.243 363.514 861.711 362.25 861.383 357.943 864.987 361.361 874.865 370.63 864.051 324.237 850.429 323.066 855.391 310.099 855.391 310.099 839.195 308.32 845.421 300.08 845.421 297.974 837.884 295.165 830.628 292.449 822.577 291.56 815.883 287.393 822.062 276.86 823.794 264.688 836.573 259.539 838.586 258.743 839.944 255.559 838.633 253.78 833.999 247.18 840.646 234.54 826.228 233.182 824.449 232.995 822.811 231.684 824.215 229.858 829.037 223.632 823.185 224.053 819.628 223.257 815.321 222.321 810.453 225.036 806.474 221.666 807.41 218.108 810.874 218.154 813.308 217.031 820.423 213.707 826.228 209.775 826.556 201.254 826.837 194.372 827.586 188.286 817.755 186.18 816.211 185.852 815.415 184.963 815.134 183.792 816.257 182.669 817.334 181.498 818.645 180.656 823.045 177.894 824.543 173.821 825.854 169.561 826.696 166.845 827.679 164.177 829.599 161.836 830.769 160.385 832.22 159.308 834.046 158.7 835.637 158.138 836.105 157.389 835.028 156.031 831.986 152.145 830.769 147.885 832.782 142.923 833.39 141.425 832.969 140.114 831.518 139.552 825.479 137.165 823.981 131.641 821.407 126.959 817.755 120.311 814.432 113.523 811.904 106.314 810.406 102.007 808.955 97.7466 809.985 92.9715 810.219 91.8012 809.797 90.8181 809.189 89.9285 806.614 86.0429 806.942 81.9232 808.908 77.6631 810.125 75.0882 809.985 74.7605 806.895 74.8542 800.623 74.9947 794.397 75.2287 788.218 74.4329 781.29 73.5433 779.043 71.4835 784.286 65.538 785.409 64.2741 786.392 62.8696 786.907 61.2779 787.281 60.0139 786.954 59.1244 785.83 58.5158 784.52 57.7668 783.818 58.7967 783.068 59.5457 778.996 63.5718 773.894 66.3339 769.025 69.3769 762.05 73.7775 754.701 77.6631 748.475 82.9999 746.884 84.3576 744.309 83.3277 744.122 81.0337 743.935 78.7398 742.671 78.7398 740.798 79.3016 738.551 79.957 736.305 80.6124 734.104 81.3614 731.811 82.1573 730.781 83.8426 730.547 85.9493 730.453 86.7452 730.5 87.7282 731.343 87.8687 734.807 88.4773 723.759 85.8088 722.636 83.9363 722.589 83.8426 694.924 90.584 686.498 94.8442ZM111.333 167.688C110.397 166.892 109.414 166.143 108.478 165.3 108.618 165.113 108.805 164.926 108.946 164.739 110.865 166.049 112.784 167.36 114.704 168.671 113.627 168.343 112.457 168.016 111.333 167.688ZM143.399 99.0574C154.914 106.922 166.43 114.834 177.945 122.699 177.758 122.886 177.617 123.073 177.43 123.261 164.791 116.613 152.854 109.216 143.399 99.0574Z" fill="#FFFFFF" fill-rule="evenodd" transform="matrix(-1 1.22465e-16 1.22465e-16 1 1073 19)"/><text font-family="Aptos Display,Aptos Display_MSFontService,sans-serif" font-weight="400" font-size="64" transform="translate(438.543 275)">Translation Tool</text><text font-family="Aptos Display,Aptos Display_MSFontService,sans-serif" font-weight="400" font-size="64" transform="translate(377.103 344)">Comparison: French</text><text font-family="Aptos Display,Aptos Display_MSFontService,sans-serif" font-weight="400" font-size="64" transform="translate(453.897 413)">and Hungarian</text></g></svg>