<svg width="1280" height="720" xmlns="http://www.w3.org/2000/svg" xmlns:xlink="http://www.w3.org/1999/xlink" overflow="hidden"><defs><filter id="fx0" x="-10%" y="-10%" width="120%" height="120%" filterUnits="userSpaceOnUse" primitiveUnits="userSpaceOnUse"><feComponentTransfer color-interpolation-filters="sRGB"><feFuncR type="discrete" tableValues="0.85098 0.85098"/><feFuncG type="discrete" tableValues="0.85098 0.85098"/><feFuncB type="discrete" tableValues="0.85098 0.85098"/><feFuncA type="linear" slope="0.501961" intercept="0"/></feComponentTransfer><feGaussianBlur stdDeviation="3.11111 3.11111"/></filter><clipPath id="clip1"><rect x="0" y="0" width="1280" height="720"/></clipPath><clipPath id="clip2"><path d="M1.90809e-05 1.07288e-05 1280 1.07288e-05 1280 0.50006 0.500073 0.50006 0.500073 171.764 88.2572 179.388C258.044 192.339 444.714 199.5 640.66 199.5 836.606 199.5 1023.28 192.339 1193.06 179.388L1280 171.835 1280 720 1.90809e-05 720Z" fill-rule="evenodd" clip-rule="evenodd"/></clipPath></defs><g clip-path="url(#clip1)"><rect x="0" y="0" width="1280" height="720" fill="#FFFFFF"/><rect x="0" y="0" width="1280" height="720" fill="#FFFFFF"/><g clip-path="url(#clip2)"><g filter="url(#fx0)" transform="translate(-8 -8)"><g><path d="M11.3285 11.3285 1291.33 11.3285 1291.33 182.62 1203.89 190.216C1034.1 203.167 847.435 210.328 651.489 210.328 455.543 210.328 268.872 203.167 99.0856 190.216L11.3285 182.593Z" stroke="#EFEFEF" stroke-miterlimit="8" fill="#FFFFFF" fill-rule="evenodd"/></g></g></g><path d="M0.500053 0.500053 1280.5 0.500053 1280.5 171.792 1193.06 179.388C1023.28 192.339 836.606 199.5 640.66 199.5 444.714 199.5 258.044 192.339 88.2572 179.388L0.500053 171.764Z" stroke="#EFEFEF" stroke-miterlimit="8" fill="#FFFFFF" fill-rule="evenodd"/><path d="M0 0 1280 0 1280 171.162 1192.56 178.793C1022.78 191.805 836.106 199 640.16 199 444.214 199 257.544 191.805 87.7572 178.793L0 171.134Z" fill="#FFFFFF" fill-rule="evenodd"/><text font-family="Aptos Display,Aptos Display_MSFontService,sans-serif" font-weight="400" font-size="53" transform="translate(97.6 107)">Comparison</text><rect x="0" y="56" width="13" height="74" fill="#E97132"/><path d="M88 297.1C88 280.476 101.476 267 118.1 267L530.9 267C547.524 267 561 280.476 561 297.1L561 537.9C561 554.524 547.524 568 530.9 568L118.1 568C101.476 568 88 554.524 88 537.9Z" stroke="#FFFFFF" stroke-width="2" stroke-miterlimit="8" fill="#0F9ED5" fill-rule="evenodd"/><path d="M141 347.1C141 330.476 154.476 317 171.1 317L583.9 317C600.524 317 614 330.476 614 347.1L614 587.9C614 604.524 600.524 618 583.9 618L171.1 618C154.476 618 141 604.524 141 587.9Z" stroke="#0F9ED5" stroke-width="2" stroke-miterlimit="8" fill="#FFFFFF" fill-rule="evenodd" fill-opacity="0.901961"/><text font-family="Aptos,Aptos_MSFontService,sans-serif" font-weight="400" font-size="33" transform="translate(168.694 366)">Windows 11 is the underlying</text><text font-family="Aptos,Aptos_MSFontService,sans-serif" font-weight="400" font-size="33" transform="translate(185.234 403)">operating system providing</text><text font-family="Aptos,Aptos_MSFontService,sans-serif" font-weight="400" font-size="33" transform="translate(179.247 440)">the hardware management,</text><text font-family="Aptos,Aptos_MSFontService,sans-serif" font-weight="400" font-size="33" transform="translate(229.747 476)">file storage, and task</text><text font-family="Aptos,Aptos_MSFontService,sans-serif" font-weight="400" font-size="33" transform="translate(178.12 513)">management that Microsoft</text><text font-family="Aptos,Aptos_MSFontService,sans-serif" font-weight="400" font-size="33" transform="translate(171.767 550)">Word (the software) relies on</text><text font-family="Aptos,Aptos_MSFontService,sans-serif" font-weight="400" font-size="33" transform="translate(294.54 586)">to function.</text><path d="M666 297.1C666 280.476 679.476 267 696.1 267L1108.9 267C1125.52 267 1139 280.476 1139 297.1L1139 537.9C1139 554.524 1125.52 568 1108.9 568L696.1 568C679.476 568 666 554.524 666 537.9Z" stroke="#FFFFFF" stroke-width="2" stroke-miterlimit="8" fill="#0F9ED5" fill-rule="evenodd"/><path d="M719 347.1C719 330.476 732.476 317 749.1 317L1161.9 317C1178.52 317 1192 330.476 1192 347.1L1192 587.9C1192 604.524 1178.52 618 1161.9 618L749.1 618C732.476 618 719 604.524 719 587.9Z" stroke="#0F9ED5" stroke-width="2" stroke-miterlimit="8" fill="#FFFFFF" fill-rule="evenodd" fill-opacity="0.901961"/><text font-family="Aptos,Aptos_MSFontService,sans-serif" font-weight="400" font-size="33" transform="translate(747.425 366)">Microsoft Word, as a piece of</text><text font-family="Aptos,Aptos_MSFontService,sans-serif" font-weight="400" font-size="33" transform="translate(749.691 403)">application software, utilizes</text><text font-family="Aptos,Aptos_MSFontService,sans-serif" font-weight="400" font-size="33" transform="translate(748.271 440)">the system features provided</text><text font-family="Aptos,Aptos_MSFontService,sans-serif" font-weight="400" font-size="33" transform="translate(746.945 476)">by Windows 11 (file handling,</text><text font-family="Aptos,Aptos_MSFontService,sans-serif" font-weight="400" font-size="33" transform="translate(764.878 513)">task switching, security) to</text><text font-family="Aptos,Aptos_MSFontService,sans-serif" font-weight="400" font-size="33" transform="translate(762.451 550)">create and edit documents</text><text font-family="Aptos,Aptos_MSFontService,sans-serif" font-weight="400" font-size="33" transform="translate(881.051 586)">efficiently.</text></g></svg>